# xmcd
# Copyright (C) 1995-1998 Ti Kan
#
# Track frame offsets:
#       150
#       17147
#       36677
#       64412
#       85042
#       114780
#       130657
#       144017
#       178510
#       200262
#       219720
#       246742
#       265795
#
# Disc length: 3764 seconds
#
# Revision: 0
# Processed by: cddbd v1.4b42PL1 Copyright (c) Steve Scherf et al.
# Submitted via: CD-Transfer v1.0
#
DISCID=ba0eb20d
DTITLE=The Chicago Dave Blues Band - Crossroad Keep Movin' On
DYEAR=1999
DGENRE=
TTITLE0=Miracles 'n' Prophecy
TTITLE1=Keep Movin' On
TTITLE2=Crossroad
TTITLE3=It Hurts Me Too
TTITLE4=Never Make Your Move Too Soon
TTITLE5=Phone Booth
TTITLE6=The Right Time - The Right Place
TTITLE7=Tribute To The King
TTITLE8=Try Try Try - Dani's Wedding
TTITLE9=I'm A Blues-Man
TTITLE10=Little Red Rooster
TTITLE11=Have Mercy
TTITLE12=Breakin' Up Somebody's Home
EXTD=
EXTT0=
EXTT1=
EXTT2=
EXTT3=
EXTT4=
EXTT5=
EXTT6=
EXTT7=
EXTT8=
EXTT9=
EXTT10=
EXTT11=
EXTT12=
PLAYORDER=
